# xmcd CD database file
#
# Track frame offsets:
#	150
#	21150
#	43200
#	64201
#
# Disc length: 1148 seconds
#
# Revision: 0
# Processed by: cddbd v1.5.1PL0 Copyright (c) Steve Scherf et al.
# Submitted via: CDex 1.51
#
DISCID=33047a04
DTITLE=sacra - かげぼうし
DYEAR=1900
DGENRE=Pop
TTITLE0=かげぼうし
TTITLE1=さよならさえも言えなくて
TTITLE2=かげぼうし - back track -
TTITLE3=さよならさえも言えなくて - back track -
EXTD=
EXTT0=
EXTT1=
EXTT2=
EXTT3=
PLAYORDER=
